<svg width="118" height="24" viewBox="0 0 118 24" fill="none" xmlns="http://www.w3.org/2000/svg">
<path d="M34.7275 10.5625C34.6744 10.0663 34.4509 9.67992 34.057 9.40341C33.6668 9.12689 33.1593 8.98864 32.5343 8.98864C32.0949 8.98864 31.718 9.05492 31.4036 9.1875C31.0892 9.32008 30.8487 9.5 30.682 9.72727C30.5153 9.95455 30.4301 10.214 30.4263 10.5057C30.4263 10.7481 30.4812 10.9583 30.5911 11.1364C30.7047 11.3144 30.8581 11.4659 31.0513 11.5909C31.2445 11.7121 31.4585 11.8144 31.6934 11.8977C31.9282 11.9811 32.165 12.0511 32.4036 12.108L33.4945 12.3807C33.9339 12.483 34.3562 12.6212 34.7615 12.7955C35.1706 12.9697 35.5362 13.1894 35.8581 13.4545C36.1839 13.7197 36.4415 14.0398 36.6309 14.4148C36.8203 14.7898 36.915 15.2292 36.915 15.733C36.915 16.4148 36.7407 17.0152 36.3922 17.5341C36.0437 18.0492 35.54 18.4527 34.8809 18.7443C34.2256 19.0322 33.432 19.1761 32.5002 19.1761C31.5949 19.1761 30.8089 19.036 30.1422 18.7557C29.4793 18.4754 28.9604 18.0663 28.5854 17.5284C28.2142 16.9905 28.0134 16.3352 27.9831 15.5625H30.057C30.0873 15.9678 30.2123 16.3049 30.432 16.5739C30.6517 16.8428 30.9377 17.0436 31.29 17.1761C31.646 17.3087 32.0437 17.375 32.4831 17.375C32.9415 17.375 33.343 17.3068 33.6877 17.1705C34.0362 17.0303 34.3089 16.8371 34.5059 16.5909C34.7028 16.3409 34.8032 16.0492 34.807 15.7159C34.8032 15.4129 34.7142 15.1629 34.54 14.9659C34.3657 14.7652 34.1214 14.5985 33.807 14.4659C33.4964 14.3295 33.1328 14.2083 32.7161 14.1023L31.3922 13.7614C30.4339 13.5152 29.6763 13.142 29.1195 12.642C28.5665 12.1383 28.29 11.4697 28.29 10.6364C28.29 9.95076 28.4756 9.35038 28.8468 8.83523C29.2218 8.32008 29.7312 7.92045 30.3752 7.63636C31.0191 7.34848 31.7483 7.20455 32.5627 7.20455C33.3884 7.20455 34.1119 7.34848 34.7331 7.63636C35.3581 7.92045 35.8487 8.31629 36.2047 8.82386C36.5608 9.32765 36.7445 9.9072 36.7559 10.5625H34.7275ZM41.2147 19.1761C40.6616 19.1761 40.1635 19.0777 39.7203 18.8807C39.281 18.6799 38.9325 18.3845 38.6749 17.9943C38.4211 17.6042 38.2942 17.1231 38.2942 16.5511C38.2942 16.0587 38.3851 15.6515 38.5669 15.3295C38.7488 15.0076 38.9969 14.75 39.3113 14.5568C39.6257 14.3636 39.9798 14.2178 40.3738 14.1193C40.7715 14.017 41.1825 13.9432 41.6067 13.8977C42.1181 13.8447 42.5328 13.7973 42.851 13.7557C43.1692 13.7102 43.4003 13.642 43.5442 13.5511C43.6919 13.4564 43.7658 13.3106 43.7658 13.1136V13.0795C43.7658 12.6515 43.6389 12.3201 43.3851 12.0852C43.1313 11.8504 42.7658 11.733 42.2885 11.733C41.7847 11.733 41.3851 11.8428 41.0897 12.0625C40.798 12.2822 40.601 12.5417 40.4988 12.8409L38.5783 12.5682C38.7298 12.0379 38.9798 11.5947 39.3283 11.2386C39.6768 10.8788 40.1029 10.6098 40.6067 10.4318C41.1105 10.25 41.6673 10.1591 42.2772 10.1591C42.6976 10.1591 43.1162 10.2083 43.5328 10.3068C43.9495 10.4053 44.3302 10.5682 44.6749 10.7955C45.0196 11.0189 45.2961 11.3239 45.5044 11.7102C45.7166 12.0966 45.8226 12.5795 45.8226 13.1591V19H43.8453V17.8011H43.7772C43.6522 18.0436 43.476 18.2708 43.2488 18.483C43.0253 18.6913 42.7431 18.8598 42.4022 18.9886C42.065 19.1136 41.6692 19.1761 41.2147 19.1761ZM41.7488 17.6648C42.1616 17.6648 42.5196 17.5833 42.8226 17.4205C43.1257 17.2538 43.3586 17.0341 43.5215 16.7614C43.6882 16.4886 43.7715 16.1913 43.7715 15.8693V14.8409C43.7071 14.8939 43.5972 14.9432 43.4419 14.9886C43.2904 15.0341 43.12 15.0739 42.9306 15.108C42.7412 15.142 42.5537 15.1723 42.3681 15.1989C42.1825 15.2254 42.0215 15.2481 41.8851 15.267C41.5783 15.3087 41.3037 15.3769 41.0613 15.4716C40.8188 15.5663 40.6275 15.6989 40.4874 15.8693C40.3472 16.036 40.2772 16.2519 40.2772 16.517C40.2772 16.8958 40.4154 17.1818 40.6919 17.375C40.9685 17.5682 41.3207 17.6648 41.7488 17.6648ZM47.8908 19V10.2727H49.8851V11.7273H49.976C50.1351 11.2235 50.4078 10.8352 50.7942 10.5625C51.1844 10.286 51.6294 10.1477 52.1294 10.1477C52.2431 10.1477 52.37 10.1534 52.5101 10.1648C52.6541 10.1723 52.7734 10.1856 52.8681 10.2045V12.0966C52.781 12.0663 52.6427 12.0398 52.4533 12.017C52.2677 11.9905 52.0878 11.9773 51.9135 11.9773C51.5385 11.9773 51.2014 12.0587 50.9022 12.2216C50.6067 12.3807 50.3738 12.6023 50.2033 12.8864C50.0328 13.1705 49.9476 13.4981 49.9476 13.8693V19H47.8908ZM62.2956 10.2727L59.1877 19H56.915L53.807 10.2727H56.0002L58.0059 16.7557H58.0968L60.1081 10.2727H62.2956ZM65.9803 19.1761C65.4273 19.1761 64.9292 19.0777 64.486 18.8807C64.0466 18.6799 63.6981 18.3845 63.4405 17.9943C63.1867 17.6042 63.0598 17.1231 63.0598 16.5511C63.0598 16.0587 63.1507 15.6515 63.3326 15.3295C63.5144 15.0076 63.7625 14.75 64.0769 14.5568C64.3913 14.3636 64.7454 14.2178 65.1394 14.1193C65.5371 14.017 65.9481 13.9432 66.3723 13.8977C66.8837 13.8447 67.2985 13.7973 67.6167 13.7557C67.9348 13.7102 68.1659 13.642 68.3098 13.5511C68.4576 13.4564 68.5314 13.3106 68.5314 13.1136V13.0795C68.5314 12.6515 68.4045 12.3201 68.1507 12.0852C67.897 11.8504 67.5314 11.733 67.0542 11.733C66.5504 11.733 66.1507 11.8428 65.8553 12.0625C65.5636 12.2822 65.3667 12.5417 65.2644 12.8409L63.3439 12.5682C63.4954 12.0379 63.7454 11.5947 64.0939 11.2386C64.4424 10.8788 64.8685 10.6098 65.3723 10.4318C65.8761 10.25 66.4329 10.1591 67.0428 10.1591C67.4632 10.1591 67.8818 10.2083 68.2985 10.3068C68.7151 10.4053 69.0958 10.5682 69.4405 10.7955C69.7852 11.0189 70.0617 11.3239 70.2701 11.7102C70.4822 12.0966 70.5882 12.5795 70.5882 13.1591V19H68.611V17.8011H68.5428C68.4178 18.0436 68.2417 18.2708 68.0144 18.483C67.7909 18.6913 67.5087 18.8598 67.1678 18.9886C66.8307 19.1136 66.4348 19.1761 65.9803 19.1761ZM66.5144 17.6648C66.9273 17.6648 67.2852 17.5833 67.5882 17.4205C67.8913 17.2538 68.1242 17.0341 68.2871 16.7614C68.4538 16.4886 68.5371 16.1913 68.5371 15.8693V14.8409C68.4727 14.8939 68.3629 14.9432 68.2076 14.9886C68.056 15.0341 67.8856 15.0739 67.6962 15.108C67.5068 15.142 67.3193 15.1723 67.1337 15.1989C66.9481 15.2254 66.7871 15.2481 66.6507 15.267C66.3439 15.3087 66.0693 15.3769 65.8269 15.4716C65.5845 15.5663 65.3932 15.6989 65.253 15.8693C65.1129 16.036 65.0428 16.2519 65.0428 16.517C65.0428 16.8958 65.181 17.1818 65.4576 17.375C65.7341 17.5682 66.0864 17.6648 66.5144 17.6648ZM72.6564 19V10.2727H74.6223V11.7557H74.7246C74.9064 11.2557 75.2076 10.8655 75.628 10.5852C76.0485 10.3011 76.5504 10.1591 77.1337 10.1591C77.7246 10.1591 78.2227 10.303 78.628 10.5909C79.0371 10.875 79.325 11.2633 79.4917 11.7557H79.5826C79.7757 11.2708 80.1015 10.8845 80.5598 10.5966C81.022 10.3049 81.5693 10.1591 82.2019 10.1591C83.0049 10.1591 83.6602 10.4129 84.1678 10.9205C84.6754 11.428 84.9292 12.1686 84.9292 13.142V19H82.8667V13.4602C82.8667 12.9186 82.7227 12.5227 82.4348 12.2727C82.147 12.0189 81.7947 11.892 81.378 11.892C80.8818 11.892 80.4935 12.0473 80.2132 12.358C79.9367 12.6648 79.7985 13.0644 79.7985 13.5568V19H77.7814V13.375C77.7814 12.9242 77.6451 12.5644 77.3723 12.2955C77.1034 12.0265 76.7511 11.892 76.3155 11.892C76.0201 11.892 75.7511 11.9678 75.5087 12.1193C75.2663 12.267 75.0731 12.4773 74.9292 12.75C74.7852 13.0189 74.7132 13.3333 74.7132 13.6932V19H72.6564ZM86.7828 16.8409V15.1648L91.7203 7.36364H93.1181V9.75H92.2658L88.9419 15.017V15.108H95.834V16.8409H86.7828ZM92.334 19V16.3295L92.3567 15.5795V7.36364H94.3453V19H92.334ZM99.2573 19H97.0073L101.104 7.36364H103.706L107.808 19H105.558L102.45 9.75H102.36L99.2573 19ZM99.3311 14.4375H105.468V16.1307H99.3311V14.4375ZM111.307 7.36364V19H109.25V7.36364H111.307ZM115.479 7.36364V19H113.422V7.36364H115.479Z" fill="white"/>
<mask id="mask0_15_29" style="mask-type:luminance" maskUnits="userSpaceOnUse" x="0" y="0" width="27" height="25">
<path d="M26.8589 24.0695L0.000137863 23.9908L0.0487046 -1.4958e-05L26.9075 0.0787301L26.8589 24.0695Z" fill="white"/>
</mask>
<g mask="url(#mask0_15_29)">
<path fill-rule="evenodd" clip-rule="evenodd" d="M26.8782 14.5492C26.873 17.0742 25.9249 19.4929 24.2422 21.2734C22.5595 23.0539 20.2802 24.0502 17.9057 24.0433L8.95247 24.017C6.5781 24.0098 4.30309 23 2.62785 21.2097C0.952617 19.4194 0.0143677 16.9952 0.0194788 14.4705C0.02459 11.9457 0.972643 9.52709 2.65511 7.74664C4.33757 5.96619 6.61664 4.96971 8.99102 4.97641L12.4035 4.98642L10.5279 2.26995C9.79676 1.21121 10.9154 -0.169978 12.0084 0.443993L21.7562 5.91849C23.2916 6.69324 24.5883 7.91611 25.4952 9.44445C26.4021 10.9728 26.8817 12.7436 26.8782 14.5502M23.1179 14.5392C23.1147 16.0035 22.5646 17.4061 21.5887 18.4386C20.6127 19.4711 19.2909 20.0489 17.9138 20.0448L8.96057 20.0186C7.58331 20.0145 6.26365 19.4289 5.29188 18.3905C4.32011 17.3521 3.77584 15.946 3.77881 14.4815C3.78177 13.017 4.33173 11.6141 5.30769 10.5814C6.28365 9.54871 7.60567 8.97082 8.98292 8.97486L17.9361 9.00111C19.3134 9.00515 20.633 9.59078 21.6048 10.6292C22.5766 11.6676 23.1209 13.0737 23.1179 14.5382" fill="url(#paint0_radial_15_29)"/>
<path fill-rule="evenodd" clip-rule="evenodd" d="M10.0498 12.5976C9.57487 12.5962 9.11903 12.7954 8.7825 13.1513C8.44598 13.5072 8.25635 13.9908 8.25533 14.4955C8.25431 15.0003 8.44198 15.4849 8.77705 15.8428C9.11213 16.2007 9.56716 16.4026 10.0421 16.404C10.5169 16.4054 10.9728 16.2062 11.3093 15.8503C11.6458 15.4943 11.8355 15.0108 11.8365 14.506C11.8375 14.0013 11.6498 13.5166 11.3148 13.1587C10.9797 12.8008 10.5247 12.599 10.0498 12.5976ZM17.0326 12.618C16.5577 12.6166 16.1018 12.8158 15.7653 13.1718C15.4288 13.5277 15.2391 14.0112 15.2381 14.516C15.2371 15.0207 15.4248 15.5054 15.7598 15.8633C16.0949 16.2212 16.55 16.423 17.0248 16.4244C17.4997 16.4258 17.9556 16.2267 18.2921 15.8707C18.6286 15.5148 18.8183 15.0312 18.8193 14.5265C18.8203 14.0217 18.6326 13.5371 18.2976 13.1792C17.9625 12.8213 17.5074 12.6194 17.0326 12.618Z" fill="url(#paint1_linear_15_29)"/>
</g>
<defs>
<radialGradient id="paint0_radial_15_29" cx="0" cy="0" r="1" gradientUnits="userSpaceOnUse" gradientTransform="translate(18.5533 13.8591) rotate(-124.797) scale(13.766 13.3557)">
<stop offset="0.609" stop-color="#AD33FF"/>
<stop offset="1" stop-color="#2BD19A"/>
</radialGradient>
<linearGradient id="paint1_linear_15_29" x1="13.533" y1="16.4142" x2="13.5441" y2="12.6078" gradientUnits="userSpaceOnUse">
<stop stop-color="#A033FF"/>
<stop offset="1" stop-color="#27BF8D"/>
</linearGradient>
</defs>
</svg>
