<svg width="125" height="28" viewBox="0 0 125 28" fill="none" xmlns="http://www.w3.org/2000/svg">
<path d="M36.4716 11.5625C36.4186 11.0663 36.1951 10.6799 35.8011 10.4034C35.411 10.1269 34.9034 9.98864 34.2784 9.98864C33.839 9.98864 33.4621 10.0549 33.1477 10.1875C32.8333 10.3201 32.5928 10.5 32.4261 10.7273C32.2595 10.9545 32.1742 11.214 32.1705 11.5057C32.1705 11.7481 32.2254 11.9583 32.3352 12.1364C32.4489 12.3144 32.6023 12.4659 32.7955 12.5909C32.9886 12.7121 33.2027 12.8144 33.4375 12.8977C33.6723 12.9811 33.9091 13.0511 34.1477 13.108L35.2386 13.3807C35.678 13.483 36.1004 13.6212 36.5057 13.7955C36.9148 13.9697 37.2803 14.1894 37.6023 14.4545C37.928 14.7197 38.1856 15.0398 38.375 15.4148C38.5644 15.7898 38.6591 16.2292 38.6591 16.733C38.6591 17.4148 38.4848 18.0152 38.1364 18.5341C37.7879 19.0492 37.2841 19.4527 36.625 19.7443C35.9697 20.0322 35.1761 20.1761 34.2443 20.1761C33.339 20.1761 32.553 20.036 31.8864 19.7557C31.2235 19.4754 30.7045 19.0663 30.3295 18.5284C29.9583 17.9905 29.7576 17.3352 29.7273 16.5625H31.8011C31.8314 16.9678 31.9564 17.3049 32.1761 17.5739C32.3958 17.8428 32.6818 18.0436 33.0341 18.1761C33.3902 18.3087 33.7879 18.375 34.2273 18.375C34.6856 18.375 35.0871 18.3068 35.4318 18.1705C35.7803 18.0303 36.053 17.8371 36.25 17.5909C36.447 17.3409 36.5473 17.0492 36.5511 16.7159C36.5473 16.4129 36.4583 16.1629 36.2841 15.9659C36.1098 15.7652 35.8655 15.5985 35.5511 15.4659C35.2405 15.3295 34.8769 15.2083 34.4602 15.1023L33.1364 14.7614C32.178 14.5152 31.4205 14.142 30.8636 13.642C30.3106 13.1383 30.0341 12.4697 30.0341 11.6364C30.0341 10.9508 30.2197 10.3504 30.5909 9.83523C30.9659 9.32008 31.4754 8.92045 32.1193 8.63636C32.7633 8.34848 33.4924 8.20455 34.3068 8.20455C35.1326 8.20455 35.8561 8.34848 36.4773 8.63636C37.1023 8.92045 37.5928 9.31629 37.9489 9.82386C38.3049 10.3277 38.4886 10.9072 38.5 11.5625H36.4716ZM42.9588 20.1761C42.4058 20.1761 41.9077 20.0777 41.4645 19.8807C41.0251 19.6799 40.6766 19.3845 40.419 18.9943C40.1652 18.6042 40.0384 18.1231 40.0384 17.5511C40.0384 17.0587 40.1293 16.6515 40.3111 16.3295C40.4929 16.0076 40.741 15.75 41.0554 15.5568C41.3698 15.3636 41.724 15.2178 42.1179 15.1193C42.5156 15.017 42.9266 14.9432 43.3509 14.8977C43.8622 14.8447 44.277 14.7973 44.5952 14.7557C44.9134 14.7102 45.1444 14.642 45.2884 14.5511C45.4361 14.4564 45.5099 14.3106 45.5099 14.1136V14.0795C45.5099 13.6515 45.383 13.3201 45.1293 13.0852C44.8755 12.8504 44.5099 12.733 44.0327 12.733C43.5289 12.733 43.1293 12.8428 42.8338 13.0625C42.5421 13.2822 42.3452 13.5417 42.2429 13.8409L40.3224 13.5682C40.474 13.0379 40.724 12.5947 41.0724 12.2386C41.4209 11.8788 41.8471 11.6098 42.3509 11.4318C42.8546 11.25 43.4115 11.1591 44.0213 11.1591C44.4418 11.1591 44.8603 11.2083 45.277 11.3068C45.6937 11.4053 46.0743 11.5682 46.419 11.7955C46.7637 12.0189 47.0402 12.3239 47.2486 12.7102C47.4607 13.0966 47.5668 13.5795 47.5668 14.1591V20H45.5895V18.8011H45.5213C45.3963 19.0436 45.2202 19.2708 44.9929 19.483C44.7694 19.6913 44.4872 19.8598 44.1463 19.9886C43.8092 20.1136 43.4134 20.1761 42.9588 20.1761ZM43.4929 18.6648C43.9058 18.6648 44.2637 18.5833 44.5668 18.4205C44.8698 18.2538 45.1027 18.0341 45.2656 17.7614C45.4323 17.4886 45.5156 17.1913 45.5156 16.8693V15.8409C45.4512 15.8939 45.3414 15.9432 45.1861 15.9886C45.0346 16.0341 44.8641 16.0739 44.6747 16.108C44.4853 16.142 44.2978 16.1723 44.1122 16.1989C43.9266 16.2254 43.7656 16.2481 43.6293 16.267C43.3224 16.3087 43.0478 16.3769 42.8054 16.4716C42.563 16.5663 42.3717 16.6989 42.2315 16.8693C42.0914 17.036 42.0213 17.2519 42.0213 17.517C42.0213 17.8958 42.1596 18.1818 42.4361 18.375C42.7126 18.5682 43.0649 18.6648 43.4929 18.6648ZM49.6349 20V11.2727H51.6293V12.7273H51.7202C51.8793 12.2235 52.152 11.8352 52.5384 11.5625C52.9285 11.286 53.3736 11.1477 53.8736 11.1477C53.9872 11.1477 54.1141 11.1534 54.2543 11.1648C54.3982 11.1723 54.5175 11.1856 54.6122 11.2045V13.0966C54.5251 13.0663 54.3868 13.0398 54.1974 13.017C54.0118 12.9905 53.8319 12.9773 53.6577 12.9773C53.2827 12.9773 52.9455 13.0587 52.6463 13.2216C52.3509 13.3807 52.1179 13.6023 51.9474 13.8864C51.777 14.1705 51.6918 14.4981 51.6918 14.8693V20H49.6349ZM64.0398 11.2727L60.9318 20H58.6591L55.5511 11.2727H57.7443L59.75 17.7557H59.8409L61.8523 11.2727H64.0398ZM67.7244 20.1761C67.1714 20.1761 66.6733 20.0777 66.2301 19.8807C65.7907 19.6799 65.4422 19.3845 65.1847 18.9943C64.9309 18.6042 64.804 18.1231 64.804 17.5511C64.804 17.0587 64.8949 16.6515 65.0767 16.3295C65.2585 16.0076 65.5066 15.75 65.821 15.5568C66.1354 15.3636 66.4896 15.2178 66.8835 15.1193C67.2813 15.017 67.6922 14.9432 68.1165 14.8977C68.6278 14.8447 69.0426 14.7973 69.3608 14.7557C69.679 14.7102 69.91 14.642 70.054 14.5511C70.2017 14.4564 70.2756 14.3106 70.2756 14.1136V14.0795C70.2756 13.6515 70.1487 13.3201 69.8949 13.0852C69.6411 12.8504 69.2756 12.733 68.7983 12.733C68.2945 12.733 67.8949 12.8428 67.5994 13.0625C67.3078 13.2822 67.1108 13.5417 67.0085 13.8409L65.0881 13.5682C65.2396 13.0379 65.4896 12.5947 65.8381 12.2386C66.1866 11.8788 66.6127 11.6098 67.1165 11.4318C67.6203 11.25 68.1771 11.1591 68.7869 11.1591C69.2074 11.1591 69.6259 11.2083 70.0426 11.3068C70.4593 11.4053 70.84 11.5682 71.1847 11.7955C71.5294 12.0189 71.8059 12.3239 72.0142 12.7102C72.2263 13.0966 72.3324 13.5795 72.3324 14.1591V20H70.3551V18.8011H70.2869C70.1619 19.0436 69.9858 19.2708 69.7585 19.483C69.535 19.6913 69.2528 19.8598 68.9119 19.9886C68.5748 20.1136 68.179 20.1761 67.7244 20.1761ZM68.2585 18.6648C68.6714 18.6648 69.0294 18.5833 69.3324 18.4205C69.6354 18.2538 69.8684 18.0341 70.0312 17.7614C70.1979 17.4886 70.2812 17.1913 70.2812 16.8693V15.8409C70.2169 15.8939 70.107 15.9432 69.9517 15.9886C69.8002 16.0341 69.6297 16.0739 69.4403 16.108C69.2509 16.142 69.0634 16.1723 68.8778 16.1989C68.6922 16.2254 68.5313 16.2481 68.3949 16.267C68.0881 16.3087 67.8134 16.3769 67.571 16.4716C67.3286 16.5663 67.1373 16.6989 66.9972 16.8693C66.857 17.036 66.7869 17.2519 66.7869 17.517C66.7869 17.8958 66.9252 18.1818 67.2017 18.375C67.4782 18.5682 67.8305 18.6648 68.2585 18.6648ZM74.4006 20V11.2727H76.3665V12.7557H76.4688C76.6506 12.2557 76.9517 11.8655 77.3722 11.5852C77.7926 11.3011 78.2945 11.1591 78.8778 11.1591C79.4688 11.1591 79.9669 11.303 80.3722 11.5909C80.7813 11.875 81.0691 12.2633 81.2358 12.7557H81.3267C81.5199 12.2708 81.8456 11.8845 82.304 11.5966C82.7661 11.3049 83.3134 11.1591 83.946 11.1591C84.7491 11.1591 85.4044 11.4129 85.9119 11.9205C86.4195 12.428 86.6733 13.1686 86.6733 14.142V20H84.6108V14.4602C84.6108 13.9186 84.4669 13.5227 84.179 13.2727C83.8911 13.0189 83.5388 12.892 83.1222 12.892C82.6259 12.892 82.2377 13.0473 81.9574 13.358C81.6809 13.6648 81.5426 14.0644 81.5426 14.5568V20H79.5256V14.375C79.5256 13.9242 79.3892 13.5644 79.1165 13.2955C78.8475 13.0265 78.4953 12.892 78.0597 12.892C77.7642 12.892 77.4953 12.9678 77.2528 13.1193C77.0104 13.267 76.8172 13.4773 76.6733 13.75C76.5294 14.0189 76.4574 14.3333 76.4574 14.6932V20H74.4006ZM88.527 17.8409V16.1648L93.4645 8.36364H94.8622V10.75H94.0099L90.6861 16.017V16.108H97.5781V17.8409H88.527ZM94.0781 20V17.3295L94.1009 16.5795V8.36364H96.0895V20H94.0781ZM101.001 20H98.7514L102.848 8.36364H105.45L109.553 20H107.303L104.195 10.75H104.104L101.001 20ZM101.075 15.4375H107.212V17.1307H101.075V15.4375ZM113.051 8.36364V20H110.994V8.36364H113.051ZM117.223 8.36364V20H115.166V8.36364H117.223Z" fill="#171018"/>
<mask id="mask0_16_30" style="mask-type:luminance" maskUnits="userSpaceOnUse" x="0" y="0" width="28" height="25">
<path d="M27.5693 24.7463L0.22693 24.6797L0.287048 0.00300058L27.6295 0.0696126L27.5693 24.7463Z" fill="white"/>
</mask>
<g mask="url(#mask0_16_30)">
<path fill-rule="evenodd" clip-rule="evenodd" d="M27.5932 14.9538C27.5869 17.5509 26.6205 20.0393 24.9068 21.8716C23.193 23.7039 20.8722 24.73 18.4549 24.7241L9.34043 24.7019C6.92329 24.6957 4.60775 23.6582 2.90314 21.8176C1.19853 19.9771 0.24446 17.4841 0.250787 14.8871C0.257113 12.2902 1.22332 9.80191 2.93688 7.96965C4.65044 6.13739 6.971 5.11121 9.38814 5.11682L12.862 5.12528L10.9539 2.33216C10.2101 1.24354 11.3495 -0.177745 12.4619 0.453196L22.3829 6.079C23.9455 6.87508 25.2651 8.13222 26.1876 9.70377C27.1101 11.2753 27.5976 13.0965 27.5932 14.9548M23.7652 14.9455C23.7613 16.4516 23.2007 17.8947 22.2067 18.9572C21.2127 20.0197 19.8668 20.6147 18.4649 20.6113L9.35045 20.5891C7.94839 20.5857 6.60522 19.984 5.61641 18.9164C4.6276 17.8488 4.07415 16.4028 4.07782 14.8965C4.08149 13.3901 4.64198 11.9468 5.63598 10.8841C6.62997 9.82131 7.97606 9.22618 9.37812 9.2296L18.4926 9.2518C19.8946 9.25522 21.2378 9.8569 22.2266 10.9245C23.2154 11.992 23.7689 13.4381 23.7652 14.9444" fill="url(#paint0_radial_16_30)"/>
<path fill-rule="evenodd" clip-rule="evenodd" d="M10.4638 12.9533C9.98037 12.9522 9.51619 13.1574 9.17343 13.5239C8.83067 13.8904 8.6374 14.3881 8.63613 14.9076C8.63486 15.4271 8.82571 15.9258 9.16668 16.2939C9.50765 16.6621 9.97082 16.8696 10.4543 16.8708C10.9378 16.8719 11.4019 16.6667 11.7447 16.3002C12.0875 15.9337 12.2807 15.436 12.282 14.9165C12.2833 14.397 12.0924 13.8983 11.7515 13.5302C11.4105 13.162 10.9473 12.9545 10.4638 12.9533ZM17.5728 12.9707C17.0894 12.9695 16.6252 13.1747 16.2824 13.5412C15.9397 13.9077 15.7464 14.4054 15.7451 14.9249C15.7439 15.4444 15.9347 15.9431 16.2757 16.3112C16.6166 16.6794 17.0798 16.8869 17.5633 16.8881C18.0468 16.8893 18.5109 16.684 18.8537 16.3175C19.1965 15.951 19.3897 15.4533 19.391 14.9338C19.3923 14.4143 19.2014 13.9157 18.8604 13.5475C18.5195 13.1793 18.0563 12.9718 17.5728 12.9707Z" fill="url(#paint1_linear_16_30)"/>
</g>
<defs>
<radialGradient id="paint0_radial_16_30" cx="0" cy="0" r="1" gradientUnits="userSpaceOnUse" gradientTransform="translate(19.1187 14.2483) rotate(-124.512) scale(14.1061 13.6479)">
<stop offset="0.609" stop-color="#AD33FF"/>
<stop offset="1" stop-color="#2BD19A"/>
</radialGradient>
<linearGradient id="paint1_linear_16_30" x1="14.0083" y1="16.8794" x2="14.0179" y2="12.962" gradientUnits="userSpaceOnUse">
<stop stop-color="#A033FF"/>
<stop offset="1" stop-color="#27BF8D"/>
</linearGradient>
</defs>
</svg>
