<svg width="28" height="25" viewBox="0 0 28 25" fill="none" xmlns="http://www.w3.org/2000/svg">
<mask id="mask0_18_2" style="mask-type:luminance" maskUnits="userSpaceOnUse" x="0" y="0" width="28" height="25">
<path d="M27.3423 24.7433L-0.000120901 24.6767L0.0599968 9.85643e-06L27.4024 0.0666219L27.3423 24.7433Z" fill="white"/>
</mask>
<g mask="url(#mask0_18_2)">
<path fill-rule="evenodd" clip-rule="evenodd" d="M27.3661 14.9508C27.3598 17.5479 26.3935 20.0363 24.6797 21.8686C22.9659 23.7009 20.6451 24.727 18.2278 24.7211L9.11338 24.6989C6.69624 24.6927 4.3807 23.6552 2.67609 21.8146C0.971479 19.9741 0.017409 17.4811 0.0237358 14.8842C0.0300626 12.2872 0.996267 9.79892 2.70983 7.96666C4.42338 6.1344 6.74395 5.10821 9.16109 5.11383L12.635 5.12229L10.7268 2.32917C9.98302 1.24055 11.1224 -0.180736 12.2349 0.450205L22.1558 6.07601C23.7184 6.87209 25.038 8.12923 25.9605 9.70078C26.8831 11.2723 27.3706 13.0935 27.3661 14.9518M23.5381 14.9425C23.5342 16.4486 22.9736 17.8917 21.9797 18.9542C20.9857 20.0167 19.6397 20.6117 18.2378 20.6083L9.1234 20.5861C7.72134 20.5827 6.37817 19.981 5.38936 18.9134C4.40055 17.8459 3.8471 16.3998 3.85077 14.8935C3.85444 13.3871 4.41493 11.9438 5.40893 10.8811C6.40292 9.81832 7.74901 9.22319 9.15107 9.22661L18.2655 9.24881C19.6676 9.25223 21.0108 9.8539 21.9996 10.9215C22.9884 11.9891 23.5418 13.4351 23.5381 14.9414" fill="url(#paint0_radial_18_2)"/>
<path fill-rule="evenodd" clip-rule="evenodd" d="M10.2368 12.9503C9.75332 12.9492 9.28914 13.1544 8.94638 13.5209C8.60362 13.8874 8.41034 14.3851 8.40908 14.9046C8.40781 15.4241 8.59866 15.9228 8.93963 16.2909C9.2806 16.6591 9.74377 16.8666 10.2272 16.8678C10.7107 16.8689 11.1749 16.6637 11.5177 16.2972C11.8604 15.9307 12.0537 15.433 12.055 14.9135C12.0562 14.394 11.8654 13.8953 11.5244 13.5272C11.1834 13.159 10.7203 12.9515 10.2368 12.9503ZM17.3458 12.9677C16.8623 12.9665 16.3981 13.1717 16.0554 13.5382C15.7126 13.9047 15.5193 14.4025 15.5181 14.9219C15.5168 15.4414 15.7077 15.9401 16.0486 16.3083C16.3896 16.6764 16.8528 16.8839 17.3362 16.8851C17.8197 16.8863 18.2839 16.681 18.6267 16.3145C18.9694 15.948 19.1627 15.4503 19.164 14.9308C19.1652 14.4113 18.9744 13.9127 18.6334 13.5445C18.2924 13.1763 17.8293 12.9688 17.3458 12.9677Z" fill="url(#paint1_linear_18_2)"/>
</g>
<defs>
<radialGradient id="paint0_radial_18_2" cx="0" cy="0" r="1" gradientUnits="userSpaceOnUse" gradientTransform="translate(18.8917 14.2453) rotate(-124.512) scale(14.1061 13.6479)">
<stop offset="0.609" stop-color="#AD33FF"/>
<stop offset="1" stop-color="#2BD19A"/>
</radialGradient>
<linearGradient id="paint1_linear_18_2" x1="13.7813" y1="16.8764" x2="13.7908" y2="12.959" gradientUnits="userSpaceOnUse">
<stop stop-color="#A033FF"/>
<stop offset="1" stop-color="#27BF8D"/>
</linearGradient>
</defs>
</svg>
